<?xml version="1.0" encoding="UTF-8" standalone="no"?>
<!DOCTYPE svg PUBLIC "-//W3C//DTD SVG 1.1//EN" "http://www.w3.org/Graphics/SVG/1.1/DTD/svg11.dtd">
<svg version="1.1" xmlns="http://www.w3.org/2000/svg" xmlns:xlink="http://www.w3.org/1999/xlink" preserveAspectRatio="xMidYMid meet" viewBox="-4 28.607234042553188 629.3641483481435 146.6544680851064" width="619.36" height="136.65"><defs><path d="M29.89 41.72C25.01 48.83 22.58 54.6 22.58 59.03C22.58 59.38 22.58 61.11 22.58 64.23C17.7 64.55 14.99 64.72 14.45 64.76C5.66 65.43 2.6 67.56 2.6 73.15C2.6 78.74 5.66 80.88 14.45 81.54C14.99 81.58 17.7 81.75 22.58 82.07L22.58 101.12L22.58 120.17C16.9 120.49 13.75 120.66 13.12 120.7C5.79 121.1 3.26 121.77 1.8 123.76C-0.6 126.96 -0.6 131.22 1.8 134.55C3.66 136.95 5.66 137.08 37.89 137.08C70.13 137.08 72.12 136.95 73.99 134.55C76.39 131.22 76.39 126.96 73.99 123.63C72.26 121.37 70.13 121.1 56.01 120.7C54.93 120.66 49.56 120.49 39.89 120.17L39.89 101.12L39.89 82.07C50.36 81.75 56.18 81.58 57.34 81.54C72.79 81.14 74.92 80.88 76.65 78.61C79.05 75.28 79.05 71.02 76.65 67.69C74.92 65.43 72.79 65.16 57.34 64.76C56.18 64.72 50.36 64.55 39.89 64.23C39.89 61.67 39.89 60.25 39.89 59.96C39.89 57.3 40.96 54.64 42.69 53.04C46.42 49.71 59.47 49.04 70.92 51.71C82.65 54.5 84.64 54.37 87.97 51.04C91.57 47.44 90.9 40.92 86.51 37.72C80.65 33.46 55.47 31.06 44.55 33.73C40.6 34.71 35.71 37.38 29.89 41.72Z" id="a7IsjtRDxh"></path><linearGradient id="gradientaypy7Vqm8" gradientUnits="userSpaceOnUse" x1="161.18" y1="114.01" x2="102.4" y2="391.28"><stop style="stop-color: #39819f;stop-opacity: 1" offset="0%"></stop><stop style="stop-color: #ffffff;stop-opacity: 1" offset="100%"></stop></linearGradient><path d="M215.65 44.59C216.59 47.66 221.25 49.92 226.44 49.92C226.66 49.92 227.72 49.92 229.64 49.92L229.64 85.22L229.64 120.51C227.64 120.51 226.53 120.51 226.31 120.51C219.38 120.51 215.39 128.9 219.52 134.63C221.25 136.9 223.11 137.16 238.3 137.16C253.48 137.16 255.35 136.9 257.08 134.63C261.21 128.9 257.21 120.51 250.28 120.51C250.06 120.51 248.95 120.51 246.95 120.51C246.95 111.48 246.95 106.47 246.95 105.46C246.95 90.81 247.09 90.28 250.68 86.82C255.35 82.42 262.94 79.22 268.93 79.22C274.52 79.22 280.92 82.15 282.12 85.22C282.52 86.42 282.92 94.94 282.92 104C282.92 105.1 282.92 110.6 282.92 120.51C280.92 120.51 279.81 120.51 279.59 120.51C272.66 120.51 268.66 128.9 272.79 134.63C274.52 136.9 276.39 137.16 291.57 137.16C306.76 137.16 308.62 136.9 310.35 134.63C314.48 128.9 310.49 120.51 303.56 120.51C303.34 120.51 302.23 120.51 300.23 120.51C300.23 109.88 300.23 103.98 300.23 102.8C300.23 81.89 299.17 77.76 292.64 70.97C283.32 61.38 267.33 59.25 254.41 65.64C253.92 65.9 251.43 67.18 246.95 69.5L246.95 50.99L246.95 32.61C239.6 32.69 235.52 32.73 234.7 32.74C227.91 32.74 220.98 33.27 219.38 33.94C216.05 35.27 214.32 40.33 215.65 44.59Z" id="j4vMJ9CBcU"></path><linearGradient id="gradientcGVn92EVf" gradientUnits="userSpaceOnUse" x1="300.06" y1="17.68" x2="-39.86" y2="153.47"><stop style="stop-color: #8d8d8d;stop-opacity: 1" offset="0%"></stop><stop style="stop-color: #ffffff;stop-opacity: 1" offset="100%"></stop></linearGradient><path d="M346.85 53.92C346.85 54.62 346.85 58.13 346.85 64.44C342.37 64.76 339.89 64.94 339.39 64.97C331.26 65.64 328.2 68.04 328.2 73.36C328.2 78.69 331.26 81.09 339.26 81.75C339.75 81.79 342.24 81.97 346.71 82.29C346.95 95.23 347.09 102.43 347.11 103.86C347.51 128.64 348.58 131.3 359.9 136.9C376.95 145.29 417.44 136.1 417.44 123.84C417.44 120.25 413.18 115.32 410.11 115.32C408.92 115.32 404.25 116.92 399.72 118.92C392.93 121.85 389.34 122.51 379.75 122.51C364.03 122.64 364.16 122.78 364.16 99.74C364.16 98.55 364.16 92.65 364.16 82.02C375.35 82.02 381.57 82.02 382.81 82.02C399.72 82.02 401.72 81.75 404.12 79.36C405.59 77.89 406.78 75.23 406.78 73.36C406.78 71.5 405.59 68.84 404.12 67.37C401.72 64.97 399.72 64.71 382.81 64.71C381.57 64.71 375.35 64.71 364.16 64.71C364.16 58.31 364.16 54.76 364.16 54.05C364.16 42.2 361.9 38.07 355.51 38.07C353.64 38.07 350.98 39.27 349.51 40.73C347.25 43 346.85 45.13 346.85 53.92Z" id="asWDcVAJ9"></path><linearGradient id="gradienta3h1cBdUk" gradientUnits="userSpaceOnUse" x1="406.41" y1="23.49" x2="93.12" y2="156.06"><stop style="stop-color: #8d8d8d;stop-opacity: 1" offset="0%"></stop><stop style="stop-color: #ffffff;stop-opacity: 1" offset="100%"></stop></linearGradient><path d="M449.41 53.92C449.41 54.62 449.41 58.13 449.41 64.44C444.93 64.76 442.44 64.94 441.95 64.97C433.82 65.64 430.76 68.04 430.76 73.36C430.76 78.69 433.82 81.09 441.81 81.75C442.31 81.79 444.8 81.97 449.27 82.29C449.51 95.23 449.65 102.43 449.67 103.86C450.07 128.64 451.14 131.3 462.46 136.9C479.51 145.29 520 136.1 520 123.84C520 120.25 515.73 115.32 512.67 115.32C511.47 115.32 506.81 116.92 502.28 118.92C495.49 121.85 491.89 122.51 482.3 122.51C466.59 122.64 466.72 122.78 466.72 99.74C466.72 98.55 466.72 92.65 466.72 82.02C477.91 82.02 484.12 82.02 485.37 82.02C502.28 82.02 504.28 81.75 506.68 79.36C508.14 77.89 509.34 75.23 509.34 73.36C509.34 71.5 508.14 68.84 506.68 67.37C504.28 64.97 502.28 64.71 485.37 64.71C484.12 64.71 477.91 64.71 466.72 64.71C466.72 58.31 466.72 54.76 466.72 54.05C466.72 42.2 464.46 38.07 458.06 38.07C456.2 38.07 453.53 39.27 452.07 40.73C449.8 43 449.41 45.13 449.41 53.92Z" id="c7JVCzu4z"></path><linearGradient id="gradientasGXjlCBK" gradientUnits="userSpaceOnUse" x1="508.97" y1="23.49" x2="195.67" y2="156.06"><stop style="stop-color: #8d8d8d;stop-opacity: 1" offset="0%"></stop><stop style="stop-color: #ffffff;stop-opacity: 1" offset="100%"></stop></linearGradient><path d="M579.06 62.41L579.91 62.45L580.76 62.5L581.61 62.56L582.46 62.64L583.3 62.73L584.14 62.83L584.98 62.95L585.81 63.08L586.63 63.22L587.44 63.37L588.24 63.54L589.03 63.73L589.81 63.92L590.58 64.13L591.33 64.35L592.07 64.58L592.79 64.83L593.5 65.08L594.19 65.36L594.86 65.64L595.45 65.91L596.04 66.19L596.63 66.49L597.23 66.8L597.83 67.13L598.42 67.47L599.02 67.83L599.61 68.19L600.21 68.57L600.8 68.97L601.39 69.37L601.98 69.79L602.57 70.22L603.15 70.66L603.73 71.11L604.31 71.57L604.88 72.04L605.45 72.51L606.01 73L606.56 73.5L607.11 74L607.65 74.51L608.19 75.03L608.71 75.55L609.23 76.09L609.74 76.62L610.25 77.17L610.74 77.71L611.22 78.27L611.7 78.82L612.16 79.39L612.61 79.95L613.05 80.52L613.48 81.09L613.89 81.66L614.29 82.24L614.68 82.82L615.06 83.39L615.42 83.97L615.77 84.55L615.99 84.94L616.21 85.31L616.42 85.68L616.61 86.04L616.8 86.39L616.98 86.73L617.15 87.07L617.32 87.4L617.47 87.74L617.62 88.06L617.76 88.39L617.9 88.71L618.02 89.04L618.14 89.36L618.25 89.69L618.36 90.01L618.46 90.34L618.55 90.68L618.63 91.02L618.71 91.36L618.79 91.71L618.86 92.07L618.92 92.43L618.98 92.81L619.03 93.19L619.08 93.59L619.13 93.99L619.17 94.41L619.2 94.84L619.23 95.28L619.26 95.74L619.28 96.22L619.3 96.71L619.32 97.22L619.34 97.74L619.35 98.29L619.35 98.85L619.36 99.43L619.36 100.04L619.36 100.67L619.34 101.84L619.29 102.98L619.22 104.1L619.12 105.21L619 106.29L618.84 107.35L618.67 108.39L618.46 109.41L618.23 110.41L617.97 111.39L617.68 112.36L617.37 113.3L617.02 114.23L616.65 115.14L616.25 116.03L615.82 116.91L615.36 117.77L614.87 118.61L614.35 119.44L613.8 120.25L613.22 121.04L612.61 121.83L611.97 122.59L611.3 123.35L610.59 124.09L609.86 124.82L609.09 125.53L608.29 126.23L607.46 126.92L606.59 127.6L605.69 128.27L604.76 128.93L603.79 129.57L602.79 130.21L601.76 130.83L600.69 131.45L599.58 132.06L598.44 132.66L597.27 133.25L596.06 133.83L595.3 134.17L594.52 134.5L593.71 134.81L592.87 135.1L592.01 135.37L591.12 135.63L590.21 135.87L589.29 136.1L588.34 136.31L587.38 136.5L586.4 136.68L585.41 136.83L584.41 136.98L583.39 137.1L582.37 137.21L581.34 137.3L580.3 137.37L579.26 137.43L578.22 137.47L577.18 137.5L576.13 137.5L575.09 137.49L574.05 137.46L573.02 137.42L572 137.36L570.98 137.28L569.97 137.18L568.97 137.07L567.99 136.94L567.02 136.79L566.07 136.63L565.14 136.45L564.22 136.25L563.33 136.03L562.46 135.8L561.61 135.54L560.79 135.28L560 134.99L559.23 134.69L558.5 134.37L552.1 131.44L552.1 152.35L561.56 152.88L562.1 152.91L562.62 152.94L563.13 152.97L563.62 153.01L564.09 153.04L564.54 153.08L564.98 153.12L565.41 153.16L565.82 153.2L566.21 153.25L566.59 153.29L566.96 153.34L567.31 153.39L567.65 153.44L567.97 153.5L568.29 153.55L568.59 153.61L568.88 153.68L569.15 153.74L569.42 153.81L569.67 153.88L569.92 153.96L570.15 154.04L570.37 154.12L570.59 154.2L570.79 154.29L570.99 154.38L571.17 154.48L571.35 154.57L571.52 154.68L571.69 154.78L571.84 154.9L571.99 155.01L572.14 155.13L572.27 155.25L572.41 155.38L572.53 155.52L572.65 155.65L572.77 155.8L572.88 155.94L573.06 156.18L573.22 156.43L573.38 156.68L573.53 156.93L573.67 157.19L573.8 157.45L573.92 157.71L574.03 157.97L574.13 158.24L574.23 158.51L574.31 158.78L574.39 159.05L574.46 159.33L574.52 159.6L574.57 159.88L574.61 160.16L574.64 160.44L574.66 160.72L574.67 161L574.68 161.29L574.67 161.57L574.66 161.85L574.64 162.13L574.61 162.42L574.57 162.7L574.52 162.98L574.46 163.26L574.39 163.54L574.31 163.81L574.23 164.09L574.13 164.36L574.03 164.64L573.92 164.91L573.8 165.18L573.67 165.44L573.53 165.71L573.38 165.97L573.22 166.22L573.06 166.48L572.88 166.73L572.75 166.91L572.62 167.07L572.48 167.23L572.33 167.38L572.18 167.53L572.02 167.66L571.84 167.79L571.65 167.91L571.45 168.03L571.23 168.14L570.99 168.24L570.73 168.33L570.44 168.42L570.13 168.51L569.79 168.59L569.43 168.66L569.04 168.72L568.61 168.79L568.15 168.84L567.65 168.9L567.12 168.94L566.55 168.99L565.93 169.03L565.28 169.06L564.57 169.09L563.83 169.12L563.03 169.15L562.18 169.17L561.28 169.19L560.33 169.2L559.32 169.22L558.26 169.23L557.13 169.24L555.95 169.25L554.7 169.25L553.38 169.26L552 169.26L550.55 169.26L549.03 169.26L547.44 169.26L545.85 169.26L544.33 169.26L542.88 169.26L541.5 169.26L540.19 169.25L538.94 169.25L537.75 169.24L536.62 169.23L535.56 169.22L534.55 169.2L533.6 169.19L532.7 169.17L531.85 169.15L531.06 169.12L530.31 169.09L529.61 169.06L528.95 169.03L528.34 168.99L527.76 168.94L527.23 168.9L526.73 168.84L526.27 168.79L525.85 168.72L525.45 168.66L525.09 168.59L524.75 168.51L524.44 168.42L524.16 168.33L523.89 168.24L523.65 168.14L523.43 168.03L523.23 167.91L523.04 167.79L522.86 167.66L522.7 167.53L522.55 167.38L522.4 167.23L522.27 167.07L522.13 166.91L522 166.73L521.68 166.26L521.38 165.79L521.12 165.32L520.88 164.85L520.67 164.39L520.49 163.92L520.34 163.46L520.22 163L520.12 162.55L520.05 162.1L520.01 161.65L520 161.21L520.01 160.77L520.05 160.34L520.11 159.92L520.2 159.5L520.31 159.1L520.45 158.7L520.61 158.31L520.8 157.92L521.01 157.55L521.25 157.19L521.51 156.84L521.79 156.5L522.09 156.17L522.42 155.85L522.77 155.55L523.14 155.26L523.54 154.99L523.95 154.73L524.38 154.48L524.84 154.25L525.32 154.03L525.81 153.83L526.33 153.65L526.86 153.49L527.42 153.34L527.99 153.21L528.58 153.1L529.19 153.01L534.79 152.21L534.79 82.42L529.19 81.62L528.58 81.53L527.99 81.42L527.42 81.29L526.86 81.15L526.33 80.98L525.81 80.8L525.32 80.6L524.84 80.39L524.38 80.16L523.95 79.91L523.54 79.65L523.14 79.37L522.77 79.08L522.42 78.78L522.09 78.46L521.79 78.14L521.51 77.8L521.25 77.44L521.01 77.08L520.8 76.71L520.61 76.33L520.45 75.94L520.31 75.54L520.2 75.13L520.11 74.71L520.05 74.29L520.01 73.86L520 73.43L520.01 72.98L520.05 72.54L520.12 72.09L520.22 71.63L520.34 71.17L520.49 70.71L520.67 70.25L520.88 69.78L521.12 69.31L521.38 68.84L521.68 68.37L522 67.9L522.12 67.75L522.25 67.6L522.38 67.45L522.51 67.31L522.65 67.18L522.8 67.06L522.95 66.93L523.11 66.82L523.29 66.71L523.47 66.6L523.66 66.5L523.87 66.41L524.09 66.31L524.32 66.23L524.56 66.14L524.83 66.07L525.11 65.99L525.4 65.92L525.71 65.85L526.05 65.79L526.4 65.73L526.77 65.67L527.17 65.62L527.58 65.56L528.02 65.51L528.49 65.47L528.97 65.42L529.49 65.38L530.03 65.34L530.6 65.3L531.2 65.26L531.82 65.23L532.48 65.19L533.16 65.16L533.88 65.13L534.63 65.09L535.42 65.06L536.24 65.03L537.09 65L537.98 64.97L552.1 64.44L552.1 68.17L552.1 68.42L552.1 68.66L552.11 68.89L552.11 69.11L552.11 69.31L552.12 69.5L552.13 69.68L552.14 69.84L552.15 70L552.16 70.14L552.18 70.27L552.2 70.39L552.22 70.49L552.24 70.59L552.27 70.67L552.3 70.75L552.34 70.81L552.38 70.86L552.42 70.9L552.47 70.93L552.52 70.95L552.58 70.96L552.64 70.96L552.71 70.95L552.78 70.93L552.86 70.9L552.94 70.86L553.03 70.81L553.12 70.75L553.23 70.68L553.33 70.6L553.45 70.51L553.57 70.42L553.7 70.31L553.84 70.2L553.98 70.08L554.13 69.94L554.29 69.8L554.46 69.66L554.63 69.5L554.74 69.41L554.85 69.31L554.98 69.21L555.11 69.11L555.26 69.01L555.41 68.9L555.57 68.78L555.74 68.67L555.92 68.55L556.1 68.43L556.29 68.31L556.49 68.19L556.7 68.06L556.91 67.93L557.13 67.8L557.35 67.67L557.58 67.54L557.81 67.41L558.05 67.27L558.3 67.14L558.54 67L558.79 66.87L559.05 66.73L559.3 66.6L559.56 66.46L559.82 66.33L560.09 66.19L560.35 66.06L560.62 65.92L560.89 65.79L561.16 65.66L561.43 65.53L561.7 65.41L561.97 65.28L562.23 65.16L562.5 65.03L562.77 64.92L563.03 64.8L563.3 64.68L563.56 64.57L564.2 64.33L564.86 64.1L565.54 63.89L566.23 63.69L566.95 63.5L567.68 63.33L568.43 63.18L569.19 63.03L569.96 62.91L570.75 62.79L571.55 62.69L572.36 62.6L573.17 62.53L574 62.47L574.83 62.43L575.67 62.4L576.51 62.38L577.36 62.38L578.21 62.39L579.06 62.41ZM573.55 79.59L572.7 79.67L571.86 79.77L571.06 79.89L570.29 80.05L569.56 80.23L568.87 80.45L568.22 80.69L566.67 81.39L565.2 82.16L563.79 82.99L562.47 83.87L561.22 84.8L560.05 85.79L558.96 86.81L557.95 87.88L557.02 88.98L556.18 90.12L555.43 91.28L554.76 92.47L554.18 93.68L553.68 94.91L553.28 96.15L552.98 97.4L552.76 98.65L552.65 99.91L552.62 101.16L552.7 102.41L552.88 103.65L553.16 104.88L553.54 106.08L554.02 107.27L554.61 108.43L555.31 109.56L556.12 110.66L557.03 111.72L558.23 112.92L559.49 114.03L560.8 115.05L562.15 115.98L563.55 116.82L565 117.58L566.47 118.24L567.98 118.82L569.51 119.31L571.06 119.7L572.63 120.01L574.22 120.24L575.81 120.37L577.41 120.41L579.01 120.37L580.6 120.24L582.18 120.01L583.76 119.7L585.31 119.31L586.84 118.82L588.35 118.24L589.82 117.58L591.26 116.82L592.66 115.98L594.02 115.05L595.33 114.03L596.59 112.92L597.79 111.72L598.58 110.82L599.28 109.89L599.92 108.93L600.47 107.95L600.94 106.95L601.34 105.92L601.67 104.88L601.91 103.82L602.09 102.76L602.19 101.68L602.21 100.6L602.16 99.51L602.04 98.42L601.85 97.34L601.59 96.26L601.25 95.18L600.85 94.11L600.37 93.06L599.83 92.02L599.22 91L598.54 90L597.79 89.02L596.98 88.06L596.1 87.13L595.15 86.24L594.14 85.37L593.07 84.54L591.93 83.75L591.26 83.33L590.56 82.94L589.81 82.56L589.03 82.2L588.22 81.86L587.38 81.55L586.52 81.25L585.63 80.98L584.72 80.73L583.8 80.5L582.87 80.3L581.92 80.11L580.97 79.96L580.02 79.82L579.07 79.71L578.12 79.63L577.18 79.57L576.25 79.54L575.33 79.53L574.43 79.55L573.55 79.59Z" id="awa8uY2lE"></path><linearGradient id="gradienti2i6sb4OL" gradientUnits="userSpaceOnUse" x1="607.09" y1="47.11" x2="258.23" y2="185.94"><stop style="stop-color: #8d8d8d;stop-opacity: 1" offset="0%"></stop><stop style="stop-color: #ffffff;stop-opacity: 1" offset="100%"></stop></linearGradient><path d="M99.78 74.63C100.71 77.69 105.37 79.96 110.57 79.96C110.78 79.96 111.84 79.96 113.76 79.96C113.76 92.18 113.76 98.98 113.76 100.34C113.76 123.78 114.83 127.24 124.28 133.9C129.48 137.63 130.81 137.9 140.8 137.76C149.59 137.76 153.19 136.96 159.45 134.17C166.64 130.84 167.04 130.84 167.04 133.37C167.04 135.63 167.97 135.9 177.56 135.9C190.35 135.9 194.61 134.43 195.81 129.9C197.14 124.44 194.48 120.18 189.02 119.12C188.71 119.06 187.15 118.8 184.35 118.32L184.35 90.35L184.35 62.38C174.68 62.7 169.31 62.87 168.24 62.91C154.12 63.31 151.99 63.57 150.26 65.84C147.86 69.17 147.86 73.43 150.26 76.63C151.46 78.36 154.25 79.29 159.58 79.69C160.08 79.73 162.56 79.9 167.04 80.22L167.04 96.61L167.04 112.86C162.08 115.09 159.33 116.34 158.78 116.58C147.46 121.65 137.74 122.58 133.87 118.72C131.21 116.05 131.08 114.59 131.08 89.28C131.08 87.5 131.08 78.63 131.08 62.64C123.73 62.72 119.64 62.77 118.82 62.78C112.03 62.78 105.11 63.31 103.51 63.97C100.18 65.31 98.45 70.37 99.78 74.63Z" id="aqmetTDoE"></path><linearGradient id="gradientajGyLnmHf" gradientUnits="userSpaceOnUse" x1="272.16" y1="121.13" x2="209.13" y2="321.27"><stop style="stop-color: #39819f;stop-opacity: 1" offset="0%"></stop><stop style="stop-color: #ffffff;stop-opacity: 1" offset="100%"></stop></linearGradient><linearGradient id="gradienta3BzaFmBU" gradientUnits="userSpaceOnUse" x1="272.16" y1="121.13" x2="209.13" y2="321.27"><stop style="stop-color: #39819f;stop-opacity: 1" offset="0%"></stop><stop style="stop-color: #ffffff;stop-opacity: 1" offset="100%"></stop></linearGradient></defs><g><g><use xlink:href="#a7IsjtRDxh" opacity="1" fill="url(#gradientaypy7Vqm8)"></use></g><g><use xlink:href="#j4vMJ9CBcU" opacity="1" fill="#595959" fill-opacity="1"></use><use xlink:href="#j4vMJ9CBcU" opacity="1" fill="url(#gradientcGVn92EVf)"></use></g><g><use xlink:href="#asWDcVAJ9" opacity="1" fill="#595959" fill-opacity="1"></use><use xlink:href="#asWDcVAJ9" opacity="1" fill="url(#gradienta3h1cBdUk)"></use></g><g><use xlink:href="#c7JVCzu4z" opacity="1" fill="#595959" fill-opacity="1"></use><use xlink:href="#c7JVCzu4z" opacity="1" fill="url(#gradientasGXjlCBK)"></use></g><g><use xlink:href="#awa8uY2lE" opacity="1" fill="#595959" fill-opacity="1"></use><use xlink:href="#awa8uY2lE" opacity="1" fill="url(#gradienti2i6sb4OL)"></use></g><g><use xlink:href="#aqmetTDoE" opacity="1" fill="url(#gradientajGyLnmHf)"></use><use xlink:href="#aqmetTDoE" opacity="1" fill="url(#gradienta3BzaFmBU)"></use></g></g></svg>